# Blender 5.1.2
# www.blender.org
mtllib OptimizedWallBroken.mtl
o Cube
v 1.000000 9.999997 -10.000003
v 1.000000 -0.000003 -10.000000
v 1.000000 10.000003 9.999997
v 1.000000 0.000003 10.000000
v -1.000000 9.999997 -10.000003
v -1.000000 -0.000003 -10.000000
v -1.000000 10.000003 9.999997
v -1.000000 0.000003 10.000000
v 1.000000 -0.000002 -7.777778
v 1.000000 2.399312 -5.555555
v 1.000000 5.726798 -3.333333
v 1.000000 4.174166 -1.111111
v 1.000000 3.846075 1.111111
v 1.000000 4.533116 3.333334
v 1.000000 1.181453 5.555556
v 1.000000 0.000002 7.777778
v -0.493787 2.399312 -5.555555
v -0.493787 -0.000002 -7.777778
v -0.493787 4.174166 -1.111111
v -0.493787 5.726798 -3.333333
v -0.493787 3.846075 1.111111
v -0.493787 4.533116 3.333334
v -0.493787 1.181453 5.555556
v -0.493787 0.000002 7.777778
vn -0.0000 -0.0000 1.0000
vn -1.0000 -0.0000 -0.0000
vn -0.0000 -0.0000 -1.0000
vn 1.0000 -0.0000 -0.0000
vn 0.2970 -0.8431 -0.4483
vn -0.0000 -0.7405 -0.6721
vn -0.0000 -0.8830 -0.4694
vn 0.6610 -0.5557 -0.5043
vn -0.0000 -0.9418 -0.3360
vn 0.5826 -0.7655 -0.2731
vn -0.0000 -0.9971 0.0766
vn 0.6634 -0.7460 0.0573
vn -0.0000 -0.9293 -0.3693
vn 0.5422 -0.8258 0.1555
vn -0.0000 -0.9827 0.1850
vn -0.0000 -0.6194 0.7851
vn 0.4644 -0.6018 0.6497
vn -0.0000 -0.6795 0.7337
vn 0.6590 -0.6990 -0.2777
vn 0.6898 -0.4484 0.5684
vt 0.000000 0.000000
vt 0.125000 1.000000
vt 0.000000 1.000000
vt 1.000000 1.000000
vt 0.875000 0.000000
vt 0.875000 1.000000
vt 0.000106 0.000071
vt 0.999965 0.000070
vt 0.333392 0.427330
vt 0.125000 0.000000
vt 1.000000 0.000000
vt 0.999965 0.999929
vt 0.888869 0.999929
vt 0.777774 0.881801
vt 0.666679 0.546682
vt 0.555583 0.615376
vt 0.444488 0.582571
vt 0.222297 0.760032
vt 0.111202 0.999929
vt 0.000106 0.999929
vt 0.000000 0.873860
vt 0.142857 0.969890
vt 0.000000 0.969890
vt 0.142857 0.969890
vt 0.358321 0.873861
vt 0.142857 0.873861
vt 0.501179 0.969890
vt 0.358321 0.969890
vt 0.501179 0.873861
vt 0.644036 0.969890
vt 0.786893 0.873861
vt 0.786893 0.969890
vt 1.234904 0.969890
vt 1.001550 0.873861
vt 1.001550 0.969890
vt 0.142857 0.873860
vt 0.644036 0.873861
vt 1.234904 0.873861
s 1
usemtl Material
f 3/1/1 8/2/1 4/3/1
f 7/1/2 6/4/2 8/3/2
f 5/5/3 2/4/3 6/6/3
f 1/7/4 3/8/4 11/9/4
f 3/1/1 7/10/1 8/2/1
f 7/1/2 5/11/2 6/4/2
f 5/5/3 1/11/3 2/4/3
f 3/8/4 4/12/4 16/13/4
f 16/13/4 15/14/4 14/15/4
f 14/15/4 13/16/4 12/17/4
f 11/9/4 10/18/4 9/19/4
f 14/15/4 12/17/4 11/9/4
f 3/8/4 16/13/4 14/15/4
f 9/19/4 2/20/4 1/7/4
f 3/8/4 14/15/4 11/9/4
f 11/9/4 9/19/4 1/7/4
usemtl Material.001
f 24/21/5 15/22/6 16/23/7
f 23/24/8 14/25/9 15/26/6
f 22/25/10 13/27/11 14/28/9
f 21/29/12 12/30/13 13/27/11
f 12/30/13 20/31/14 11/32/15
f 20/31/14 10/33/16 11/32/15
f 10/33/16 18/34/17 9/35/18
f 24/21/5 23/36/8 15/22/6
f 23/24/8 22/28/10 14/25/9
f 22/25/10 21/29/12 13/27/11
f 21/29/12 19/37/19 12/30/13
f 12/30/13 19/37/19 20/31/14
f 20/31/14 17/38/20 10/33/16
f 10/33/16 17/38/20 18/34/17
