# Blender 5.1.2
# www.blender.org
mtllib OptimizedWall.mtl
o Cube
v 1.000000 9.999998 -10.000002
v 1.000000 -0.000002 -10.000000
v 1.000000 10.000002 9.999998
v 1.000000 0.000002 10.000000
v -1.000000 9.999998 -10.000002
v -1.000000 -0.000002 -10.000000
v -1.000000 10.000002 9.999998
v -1.000000 0.000002 10.000000
vn -0.0000 -0.0000 1.0000
vn -1.0000 -0.0000 -0.0000
vn 1.0000 -0.0000 -0.0000
vn -0.0000 -0.0000 -1.0000
vt 0.000000 0.000000
vt 0.125000 1.000000
vt 0.000000 1.000000
vt 1.000000 1.000000
vt 0.875000 0.000000
vt 0.875000 1.000000
vt 0.125000 0.000000
vt 1.000000 0.000000
s 1
usemtl Material.002
f 3/1/1 8/2/1 4/3/1
f 7/1/2 6/4/2 8/3/2
f 1/1/3 4/4/3 2/3/3
f 5/5/4 2/4/4 6/6/4
f 3/1/1 7/7/1 8/2/1
f 7/1/2 5/8/2 6/4/2
f 1/1/3 3/8/3 4/4/3
f 5/5/4 1/8/4 2/4/4
